<svg width="9" height="16" viewBox="0 0 9 16" fill="none" xmlns="http://www.w3.org/2000/svg">
<path d="M0.296875 7.99707C0.296875 8.23438 0.393555 8.43652 0.569336 8.6123L7.11719 15.0283C7.27539 15.1777 7.47754 15.2656 7.71484 15.2656C8.18066 15.2656 8.5498 14.9053 8.5498 14.4307C8.5498 14.1934 8.45312 13.9912 8.30371 13.833L2.32715 7.99707L8.30371 2.15234C8.45312 2.00293 8.5498 1.7832 8.5498 1.56348C8.5498 1.08887 8.18066 0.728516 7.71484 0.728516C7.47754 0.728516 7.27539 0.807617 7.11719 0.96582L0.569336 7.37305C0.393555 7.55762 0.296875 7.75977 0.296875 7.99707Z" fill="#6B6A6B"/>
</svg>
