<svg width="10" height="10" viewBox="0 0 10 10" fill="none" xmlns="http://www.w3.org/2000/svg">
<path d="M1.77832 9.97656H7.70117C8.72656 9.97656 9.23438 9.46875 9.23438 8.46289V2.50098C9.23438 1.49512 8.72656 0.987305 7.70117 0.987305H1.77832C0.757812 0.987305 0.245117 1.49023 0.245117 2.50098V8.46289C0.245117 9.47363 0.757812 9.97656 1.77832 9.97656ZM3.58496 7.7207C3.32129 7.7207 3.18945 7.54004 3.18945 7.2666V3.58984C3.18945 3.31641 3.32129 3.13574 3.58496 3.13574H5.96777C6.16309 3.13574 6.2998 3.25293 6.2998 3.46289C6.2998 3.66309 6.16309 3.79492 5.96777 3.79492H3.99512V5.0791H5.83594C6.03125 5.0791 6.16797 5.19141 6.16797 5.40137C6.16797 5.59668 6.03125 5.70898 5.83594 5.70898H3.99512V7.06152H5.96777C6.16309 7.06152 6.2998 7.18359 6.2998 7.39355C6.2998 7.59375 6.16309 7.7207 5.96777 7.7207H3.58496Z" fill="#87888C"/>
</svg>
