<svg width="14" height="13" viewBox="0 0 14 13" fill="none" xmlns="http://www.w3.org/2000/svg">
<path d="M1.8418 7.68604H6.10449V11.9487C6.10449 12.4834 6.54395 12.9229 7.07861 12.9229C7.61328 12.9229 8.05273 12.4834 8.05273 11.9487V7.68604H12.3154C12.8501 7.68604 13.2896 7.25391 13.2896 6.71191C13.2896 6.17725 12.8501 5.73779 12.3154 5.73779H8.05273V1.4751C8.05273 0.94043 7.61328 0.500977 7.07861 0.500977C6.54395 0.500977 6.10449 0.94043 6.10449 1.4751V5.73779H1.8418C1.30713 5.73779 0.867676 6.17725 0.867676 6.71191C0.867676 7.25391 1.30713 7.68604 1.8418 7.68604Z" fill="#F8C84E"/>
</svg>
